<mxfile host="app.diagrams.net" modified="2024-04-11T05:37:24.890Z" agent="Mozilla/5.0 (Macintosh; Intel Mac OS X 10_15_7) AppleWebKit/537.36 (KHTML, like Gecko) Chrome/123.0.0.0 Safari/537.36" etag="dgTxuOTP3QRPwKwL0iQq" version="21.8.2" type="github">
  <diagram name="Page-1" id="c7488fd3-1785-93aa-aadb-54a6760d102a">
    <mxGraphModel dx="1242" dy="785" grid="1" gridSize="10" guides="1" tooltips="1" connect="1" arrows="1" fold="1" page="1" pageScale="1" pageWidth="1100" pageHeight="850" background="none" math="0" shadow="0">
      <root>
        <mxCell id="0" />
        <mxCell id="1" parent="0" />
        <mxCell id="2b4e8129b02d487f-1" value="[OTT]App start url change flow with replace in the onEnter Hook on server side" style="swimlane;html=1;childLayout=stackLayout;horizontal=1;startSize=20;horizontalStack=0;rounded=0;shadow=0;labelBackgroundColor=none;strokeWidth=1;fontFamily=Verdana;fontSize=8;align=center;" parent="1" vertex="1">
          <mxGeometry x="170" y="80" width="840" height="640" as="geometry" />
        </mxCell>
        <mxCell id="2b4e8129b02d487f-2" value="step1" style="swimlane;html=1;startSize=20;horizontal=0;" parent="2b4e8129b02d487f-1" vertex="1">
          <mxGeometry y="20" width="840" height="150" as="geometry" />
        </mxCell>
        <mxCell id="-VR4b3KlCiKQWBAZH447-3" value="" style="edgeStyle=orthogonalEdgeStyle;rounded=0;orthogonalLoop=1;jettySize=auto;html=1;" edge="1" parent="2b4e8129b02d487f-2" source="2b4e8129b02d487f-6" target="-VR4b3KlCiKQWBAZH447-2">
          <mxGeometry relative="1" as="geometry" />
        </mxCell>
        <mxCell id="2b4e8129b02d487f-6" value="request, route is &#39;/&#39;" style="rounded=1;whiteSpace=wrap;html=1;shadow=0;labelBackgroundColor=none;strokeWidth=1;fontFamily=Verdana;fontSize=8;align=center;" parent="2b4e8129b02d487f-2" vertex="1">
          <mxGeometry x="140" y="56.5" width="120" height="37" as="geometry" />
        </mxCell>
        <mxCell id="-VR4b3KlCiKQWBAZH447-7" value="" style="edgeStyle=orthogonalEdgeStyle;rounded=0;orthogonalLoop=1;jettySize=auto;html=1;" edge="1" parent="2b4e8129b02d487f-2" source="-VR4b3KlCiKQWBAZH447-2" target="-VR4b3KlCiKQWBAZH447-6">
          <mxGeometry relative="1" as="geometry" />
        </mxCell>
        <mxCell id="-VR4b3KlCiKQWBAZH447-2" value="(sever/render.tsx) Initialization work, create new store, fetch experiment requests...e.t.c" style="whiteSpace=wrap;html=1;fontSize=8;fontFamily=Verdana;rounded=1;shadow=0;labelBackgroundColor=none;strokeWidth=1;" vertex="1" parent="2b4e8129b02d487f-2">
          <mxGeometry x="315" y="26.88" width="120" height="96.25" as="geometry" />
        </mxCell>
        <mxCell id="-VR4b3KlCiKQWBAZH447-6" value="react-router, to match the url and run enter hook" style="rhombus;whiteSpace=wrap;html=1;fontSize=8;fontFamily=Verdana;rounded=1;shadow=0;labelBackgroundColor=none;strokeWidth=1;" vertex="1" parent="2b4e8129b02d487f-2">
          <mxGeometry x="475" y="30" width="120" height="90" as="geometry" />
        </mxCell>
        <mxCell id="-VR4b3KlCiKQWBAZH447-12" style="edgeStyle=orthogonalEdgeStyle;rounded=0;orthogonalLoop=1;jettySize=auto;html=1;exitX=1;exitY=0.5;exitDx=0;exitDy=0;entryX=0;entryY=0.5;entryDx=0;entryDy=0;" edge="1" parent="2b4e8129b02d487f-2" source="-VR4b3KlCiKQWBAZH447-10" target="2b4e8129b02d487f-6">
          <mxGeometry relative="1" as="geometry" />
        </mxCell>
        <mxCell id="-VR4b3KlCiKQWBAZH447-10" value="App Start" style="ellipse;whiteSpace=wrap;html=1;fontSize=8;fontFamily=Verdana;rounded=1;shadow=0;labelBackgroundColor=none;strokeWidth=1;" vertex="1" parent="2b4e8129b02d487f-2">
          <mxGeometry x="40" y="35" width="80" height="80" as="geometry" />
        </mxCell>
        <mxCell id="2b4e8129b02d487f-3" value="step2" style="swimlane;html=1;startSize=20;horizontal=0;" parent="2b4e8129b02d487f-1" vertex="1">
          <mxGeometry y="170" width="840" height="150" as="geometry" />
        </mxCell>
        <mxCell id="-VR4b3KlCiKQWBAZH447-14" style="edgeStyle=orthogonalEdgeStyle;rounded=0;orthogonalLoop=1;jettySize=auto;html=1;exitX=1;exitY=0.5;exitDx=0;exitDy=0;entryX=0;entryY=0.5;entryDx=0;entryDy=0;" edge="1" parent="2b4e8129b02d487f-3" source="2b4e8129b02d487f-12" target="-VR4b3KlCiKQWBAZH447-13">
          <mxGeometry relative="1" as="geometry" />
        </mxCell>
        <mxCell id="2b4e8129b02d487f-12" value="replaced request, for example route is /personalization-title" style="rounded=1;whiteSpace=wrap;html=1;shadow=0;labelBackgroundColor=none;strokeWidth=1;fontFamily=Verdana;fontSize=8;align=center;" parent="2b4e8129b02d487f-3" vertex="1">
          <mxGeometry x="50" y="70" width="160" height="37" as="geometry" />
        </mxCell>
        <mxCell id="-VR4b3KlCiKQWBAZH447-16" value="" style="edgeStyle=orthogonalEdgeStyle;rounded=0;orthogonalLoop=1;jettySize=auto;html=1;" edge="1" parent="2b4e8129b02d487f-3" source="-VR4b3KlCiKQWBAZH447-13" target="-VR4b3KlCiKQWBAZH447-15">
          <mxGeometry relative="1" as="geometry" />
        </mxCell>
        <mxCell id="-VR4b3KlCiKQWBAZH447-13" value="(sever/render.tsx) Initialization work, create new store, fetch experiment requests...e.t.c" style="whiteSpace=wrap;html=1;fontSize=8;fontFamily=Verdana;rounded=1;shadow=0;labelBackgroundColor=none;strokeWidth=1;" vertex="1" parent="2b4e8129b02d487f-3">
          <mxGeometry x="285" y="40.379999999999995" width="120" height="96.25" as="geometry" />
        </mxCell>
        <mxCell id="-VR4b3KlCiKQWBAZH447-17" style="edgeStyle=orthogonalEdgeStyle;rounded=0;orthogonalLoop=1;jettySize=auto;html=1;entryX=0.5;entryY=1;entryDx=0;entryDy=0;" edge="1" parent="2b4e8129b02d487f-3" source="-VR4b3KlCiKQWBAZH447-15" target="2b4e8129b02d487f-12">
          <mxGeometry relative="1" as="geometry">
            <mxPoint x="230" y="160" as="targetPoint" />
            <Array as="points">
              <mxPoint x="526" y="165" />
              <mxPoint x="130" y="165" />
            </Array>
          </mxGeometry>
        </mxCell>
        <mxCell id="-VR4b3KlCiKQWBAZH447-18" value="call replace in onEnter hook-&amp;gt; redirect to the replaced route" style="edgeLabel;html=1;align=center;verticalAlign=middle;resizable=0;points=[];" vertex="1" connectable="0" parent="-VR4b3KlCiKQWBAZH447-17">
          <mxGeometry x="-0.0579" y="1" relative="1" as="geometry">
            <mxPoint as="offset" />
          </mxGeometry>
        </mxCell>
        <mxCell id="-VR4b3KlCiKQWBAZH447-20" value="" style="edgeStyle=orthogonalEdgeStyle;rounded=0;orthogonalLoop=1;jettySize=auto;html=1;" edge="1" parent="2b4e8129b02d487f-3" source="-VR4b3KlCiKQWBAZH447-15" target="-VR4b3KlCiKQWBAZH447-19">
          <mxGeometry relative="1" as="geometry" />
        </mxCell>
        <mxCell id="-VR4b3KlCiKQWBAZH447-21" value="no replace" style="edgeLabel;html=1;align=center;verticalAlign=middle;resizable=0;points=[];" vertex="1" connectable="0" parent="-VR4b3KlCiKQWBAZH447-20">
          <mxGeometry x="-0.0937" relative="1" as="geometry">
            <mxPoint as="offset" />
          </mxGeometry>
        </mxCell>
        <mxCell id="-VR4b3KlCiKQWBAZH447-15" value="react-router, to match the url and run enter hook" style="rhombus;whiteSpace=wrap;html=1;fontSize=8;fontFamily=Verdana;rounded=1;shadow=0;labelBackgroundColor=none;strokeWidth=1;" vertex="1" parent="2b4e8129b02d487f-3">
          <mxGeometry x="470" y="32.13" width="112.75" height="112.75" as="geometry" />
        </mxCell>
        <mxCell id="-VR4b3KlCiKQWBAZH447-19" value="render Hooks, like intro animation hook" style="rhombus;whiteSpace=wrap;html=1;fontSize=8;fontFamily=Verdana;rounded=1;shadow=0;labelBackgroundColor=none;strokeWidth=1;" vertex="1" parent="2b4e8129b02d487f-3">
          <mxGeometry x="662.75" y="32.12" width="112.75" height="112.75" as="geometry" />
        </mxCell>
        <mxCell id="-VR4b3KlCiKQWBAZH447-8" style="edgeStyle=orthogonalEdgeStyle;rounded=0;orthogonalLoop=1;jettySize=auto;html=1;exitX=0.5;exitY=1;exitDx=0;exitDy=0;entryX=0.5;entryY=0;entryDx=0;entryDy=0;" edge="1" parent="2b4e8129b02d487f-1" source="-VR4b3KlCiKQWBAZH447-6" target="2b4e8129b02d487f-12">
          <mxGeometry relative="1" as="geometry">
            <mxPoint x="150" y="220" as="targetPoint" />
          </mxGeometry>
        </mxCell>
        <mxCell id="-VR4b3KlCiKQWBAZH447-9" value="call replace in onEnter hook-&amp;gt; redirect to the replaced route" style="edgeLabel;html=1;align=center;verticalAlign=middle;resizable=0;points=[];" vertex="1" connectable="0" parent="-VR4b3KlCiKQWBAZH447-8">
          <mxGeometry x="0.0032" y="2" relative="1" as="geometry">
            <mxPoint as="offset" />
          </mxGeometry>
        </mxCell>
        <mxCell id="-VR4b3KlCiKQWBAZH447-25" style="edgeStyle=orthogonalEdgeStyle;rounded=0;orthogonalLoop=1;jettySize=auto;html=1;entryX=1;entryY=0.5;entryDx=0;entryDy=0;" edge="1" parent="2b4e8129b02d487f-1" source="-VR4b3KlCiKQWBAZH447-19" target="-VR4b3KlCiKQWBAZH447-23">
          <mxGeometry relative="1" as="geometry">
            <Array as="points">
              <mxPoint x="719" y="399" />
            </Array>
          </mxGeometry>
        </mxCell>
        <mxCell id="-VR4b3KlCiKQWBAZH447-26" value="needs redirect to intro page" style="edgeLabel;html=1;align=center;verticalAlign=middle;resizable=0;points=[];" vertex="1" connectable="0" parent="-VR4b3KlCiKQWBAZH447-25">
          <mxGeometry x="0.2613" relative="1" as="geometry">
            <mxPoint as="offset" />
          </mxGeometry>
        </mxCell>
        <mxCell id="2b4e8129b02d487f-4" value="step3" style="swimlane;html=1;startSize=20;horizontal=0;" parent="2b4e8129b02d487f-1" vertex="1">
          <mxGeometry y="320" width="840" height="150" as="geometry" />
        </mxCell>
        <mxCell id="-VR4b3KlCiKQWBAZH447-23" value="intro page" style="rounded=1;whiteSpace=wrap;html=1;shadow=0;labelBackgroundColor=none;strokeWidth=1;fontFamily=Verdana;fontSize=8;align=center;" vertex="1" parent="2b4e8129b02d487f-4">
          <mxGeometry x="50" y="60" width="160" height="37" as="geometry" />
        </mxCell>
        <mxCell id="-VR4b3KlCiKQWBAZH447-28" value="step4" style="swimlane;html=1;startSize=20;horizontal=0;" vertex="1" parent="2b4e8129b02d487f-1">
          <mxGeometry y="470" width="840" height="150" as="geometry" />
        </mxCell>
        <mxCell id="-VR4b3KlCiKQWBAZH447-35" style="edgeStyle=orthogonalEdgeStyle;rounded=0;orthogonalLoop=1;jettySize=auto;html=1;exitX=1;exitY=0.5;exitDx=0;exitDy=0;entryX=0;entryY=0.5;entryDx=0;entryDy=0;" edge="1" parent="-VR4b3KlCiKQWBAZH447-28" source="-VR4b3KlCiKQWBAZH447-30" target="-VR4b3KlCiKQWBAZH447-34">
          <mxGeometry relative="1" as="geometry" />
        </mxCell>
        <mxCell id="-VR4b3KlCiKQWBAZH447-30" value="final page, /personalization-title" style="rounded=1;whiteSpace=wrap;html=1;shadow=0;labelBackgroundColor=none;strokeWidth=1;fontFamily=Verdana;fontSize=8;align=center;" vertex="1" parent="-VR4b3KlCiKQWBAZH447-28">
          <mxGeometry x="50" y="56.5" width="160" height="37" as="geometry" />
        </mxCell>
        <mxCell id="-VR4b3KlCiKQWBAZH447-38" value="" style="edgeStyle=orthogonalEdgeStyle;rounded=0;orthogonalLoop=1;jettySize=auto;html=1;" edge="1" parent="-VR4b3KlCiKQWBAZH447-28" source="-VR4b3KlCiKQWBAZH447-34" target="-VR4b3KlCiKQWBAZH447-37">
          <mxGeometry relative="1" as="geometry" />
        </mxCell>
        <mxCell id="-VR4b3KlCiKQWBAZH447-34" value="(sever/render.tsx) Initialization work, create new store, fetch experiment requests...e.t.c" style="whiteSpace=wrap;html=1;fontSize=8;fontFamily=Verdana;rounded=1;shadow=0;labelBackgroundColor=none;strokeWidth=1;" vertex="1" parent="-VR4b3KlCiKQWBAZH447-28">
          <mxGeometry x="280" y="26.880000000000006" width="120" height="96.25" as="geometry" />
        </mxCell>
        <mxCell id="-VR4b3KlCiKQWBAZH447-37" value="Render react page" style="ellipse;whiteSpace=wrap;html=1;fontSize=8;fontFamily=Verdana;rounded=1;shadow=0;labelBackgroundColor=none;strokeWidth=1;" vertex="1" parent="-VR4b3KlCiKQWBAZH447-28">
          <mxGeometry x="500" y="35.00500000000001" width="80" height="80" as="geometry" />
        </mxCell>
        <mxCell id="-VR4b3KlCiKQWBAZH447-32" style="edgeStyle=orthogonalEdgeStyle;rounded=0;orthogonalLoop=1;jettySize=auto;html=1;" edge="1" parent="2b4e8129b02d487f-1" source="-VR4b3KlCiKQWBAZH447-23" target="-VR4b3KlCiKQWBAZH447-30">
          <mxGeometry relative="1" as="geometry" />
        </mxCell>
        <mxCell id="-VR4b3KlCiKQWBAZH447-33" value="end redirect" style="edgeLabel;html=1;align=center;verticalAlign=middle;resizable=0;points=[];" vertex="1" connectable="0" parent="-VR4b3KlCiKQWBAZH447-32">
          <mxGeometry x="-0.0137" y="-1" relative="1" as="geometry">
            <mxPoint x="1" y="9" as="offset" />
          </mxGeometry>
        </mxCell>
      </root>
    </mxGraphModel>
  </diagram>
</mxfile>
